<?xml version="1.0" encoding="iso-8859-1"?>
<!-- Generator: Adobe Illustrator 19.0.0, SVG Export Plug-In . SVG Version: 6.00 Build 0)  -->
<svg version="1.1" id="Layer_1" xmlns="http://www.w3.org/2000/svg" xmlns:xlink="http://www.w3.org/1999/xlink" x="0px" y="0px"
	 viewBox="0 0 512 512" style="enable-background:new 0 0 512 512;" xml:space="preserve">
<path style="fill:#D23ACB;" d="M256,8.17L179.745,256L256,503.83c136.873,0,247.83-110.957,247.83-247.83S392.873,8.17,256,8.17z"/>
<g>
	<path style="fill:#F95FF2;" d="M8.17,256c0,136.873,110.957,247.83,247.83,247.83V8.17C119.127,8.17,8.17,119.127,8.17,256z"/>
	<path style="fill:#F95FF2;" d="M258.353,40.873v430.254c117.553-1.253,212.796-97.28,212.796-215.127
		S375.906,42.126,258.353,40.873z"/>
</g>
<path style="fill:#FB8FF6;" d="M258.353,40.873C357.888,42.365,438.468,138.294,438.468,256s-80.58,213.635-180.115,215.127
	c-0.784,0.011-1.569,0.022-2.353,0.022c-118.631,0-215.149-96.517-215.149-215.149S137.368,40.851,256,40.851
	C256.784,40.851,257.569,40.862,258.353,40.873z"/>
<path style="fill:#840C7F;" d="M342.07,153.742c0,0,26.94,21.558,21.776,51.984c0,0-3.856,16.776-7.538,31.21l-59.449,24.112
	L342.07,153.742z"/>
<g>
	<path style="fill:#AB15A4;" d="M342.07,153.742l-16.035,94.437l0.076,0.207l-48.945,21.188l27.19-73.946
		C309.531,165.202,342.07,153.742,342.07,153.742z"/>
	<path style="fill:#AB15A4;" d="M169.93,153.742l45.211,107.306l-59.449-24.112c-3.682-14.434-7.538-31.21-7.538-31.21
		C142.99,175.3,169.93,153.742,169.93,153.742z"/>
</g>
<g>
	<path style="fill:#840C7F;" d="M234.834,269.573l-48.945-21.188l0.076-0.207l-16.035-94.437c0,0,32.539,11.46,37.714,41.886
		L234.834,269.573z"/>
	<path style="fill:#840C7F;" d="M306.274,163.775c0,0-5.414,79.229-7.32,94.905l-64.741,16.275L256,84.426
		C256,84.426,306.274,112.335,306.274,163.775z"/>
</g>
<path style="fill:#AB15A4;" d="M256,84.426v190.529l-42.954-16.275c-1.906-15.676-7.321-94.905-7.321-94.905
	C205.726,112.335,256,84.426,256,84.426z"/>
<path style="fill:#D23ACB;" d="M332.255,236.936c-40.029,0-59.521,27.123-76.255,27.123s-36.227-27.123-76.255-27.123h-76.255
	v76.255c0,42.115,34.141,76.255,76.255,76.255c40.029,0,59.521-27.123,76.255-27.123s36.227,27.123,76.255,27.123
	c42.115,0,76.255-34.141,76.255-76.255v-76.255H332.255z M186.449,337.663c-15.298,0-29.048-7.117-38.547-18.435
	c9.499-11.319,23.248-18.435,38.547-18.435s29.048,7.117,38.547,18.435C215.496,330.546,201.747,337.663,186.449,337.663z
	 M325.551,337.663c-15.298,0-29.048-7.117-38.547-18.435c9.499-11.319,23.248-18.435,38.547-18.435s29.048,7.117,38.547,18.435
	C354.599,330.546,340.849,337.663,325.551,337.663z"/>
<path d="M437.019,74.981C388.667,26.628,324.38,0,256,0S123.332,26.628,74.981,74.981C26.628,123.332,0,187.62,0,256
	s26.628,132.668,74.981,181.019C123.332,485.372,187.62,512,256,512s132.667-26.628,181.019-74.981
	C485.372,388.668,512,324.38,512,256S485.372,123.332,437.019,74.981z M256,495.66c-132.149,0-239.66-107.51-239.66-239.66
	S123.851,16.34,256,16.34S495.66,123.851,495.66,256S388.149,495.66,256,495.66z"/>
<path d="M186.449,345.833c17.084,0,33.415-7.783,44.804-21.354c2.549-3.037,2.549-7.466,0-10.505
	c-11.389-13.57-27.72-21.353-44.804-21.353s-33.415,7.783-44.804,21.353c-2.549,3.038-2.549,7.468,0,10.505
	C153.032,338.05,169.364,345.833,186.449,345.833z M186.449,308.963c9.87,0,19.429,3.674,27.101,10.265
	c-7.671,6.591-17.232,10.265-27.101,10.265c-9.87,0-19.429-3.674-27.101-10.265C167.019,312.637,176.579,308.963,186.449,308.963z"
	/>
<path d="M325.551,345.833c17.086,0,33.416-7.783,44.805-21.354c2.549-3.037,2.549-7.466,0-10.505
	c-11.389-13.57-27.72-21.354-44.805-21.354c-17.084,0-33.415,7.783-44.804,21.354c-2.549,3.037-2.549,7.466,0,10.505
	C292.136,338.05,308.466,345.833,325.551,345.833z M325.551,308.963c9.87,0,19.43,3.674,27.101,10.265
	c-7.671,6.591-17.232,10.265-27.101,10.265c-9.87,0-19.429-3.674-27.1-10.265C306.123,312.637,315.682,308.963,325.551,308.963z"/>
<path d="M95.319,236.936v76.255c0,46.552,37.874,84.426,84.426,84.426c26.566,0,44.955-10.992,58.381-19.018
	c7.276-4.35,13.558-8.105,17.874-8.105s10.598,3.756,17.874,8.105c13.426,8.026,31.815,19.018,58.381,19.018
	c46.552,0,84.426-37.874,84.426-84.426v-76.255c0-4.512-3.657-8.17-8.17-8.17h-41.743c2.717-11.115,5.008-21.077,5.037-21.206
	c0.035-0.152,0.066-0.306,0.093-0.461c5.905-34.77-23.466-58.733-24.719-59.736c-2.202-1.762-5.156-2.265-7.818-1.328
	c-0.887,0.313-13.475,4.884-24.942,15.594c-1.32-54.226-52.256-83.129-54.453-84.348c-2.466-1.369-5.463-1.369-7.931,0
	c-2.196,1.219-53.131,30.122-54.452,84.348c-11.468-10.711-24.055-15.283-24.942-15.594c-2.661-0.938-5.617-0.434-7.818,1.328
	c-1.253,1.003-30.624,24.965-24.719,59.736c0.026,0.155,0.057,0.308,0.092,0.46c0.029,0.13,2.319,10.092,5.036,21.207h-41.742
	C98.977,228.766,95.319,232.424,95.319,236.936z M340.432,163.394c6.264,6.453,18.495,21.802,15.392,40.746
	c-0.41,1.775-3.036,13.136-5.883,24.625h-17.686c-8.341,0-15.875,1.085-22.703,2.819c0.986-10.285,1.939-22.682,2.738-34.027
	c0.045-0.185,0.093-0.37,0.125-0.561C315.65,177.946,332.371,167.427,340.432,163.394z M256.014,94.076
	c11.167,7.511,41.971,31.655,42.095,69.47c-0.221,3.777-2.972,50.528-5.608,74.114c-7.131,3.257-13.274,6.926-18.626,10.125
	c-7.276,4.35-13.558,8.105-17.874,8.105c-4.316,0-10.598-3.756-17.874-8.105c-5.351-3.199-11.494-6.867-18.626-10.126
	c-2.635-23.582-5.387-70.336-5.607-74.114C214.016,125.886,244.872,101.615,256.014,94.076z M156.176,204.141
	c-3.104-18.951,9.136-34.304,15.389-40.746c8.074,4.039,24.785,14.557,28.019,33.602c0.033,0.191,0.08,0.374,0.124,0.559
	c0.799,11.347,1.753,23.745,2.738,34.029c-6.827-1.735-14.361-2.819-22.702-2.819H162.06
	C159.213,217.279,156.586,205.915,156.176,204.141z M111.66,245.106h68.085c22.054,0,37.547,9.262,49.997,16.703
	c9.353,5.592,17.431,10.42,26.258,10.42c8.827,0,16.906-4.829,26.258-10.42c12.449-7.441,27.943-16.703,49.997-16.703h68.085v68.085
	c0,37.542-30.542,68.085-68.085,68.085c-22.054,0-37.548-9.262-49.997-16.703c-9.353-5.592-17.431-10.42-26.258-10.42
	c-8.827,0-16.906,4.829-26.258,10.42c-12.45,7.441-27.943,16.703-49.997,16.703c-37.542,0-68.085-30.544-68.085-68.085V245.106z"/>
<path d="M256,239.548c4.513,0,8.17-3.658,8.17-8.17V125.816c0-4.512-3.657-8.17-8.17-8.17c-4.512,0-8.17,3.658-8.17,8.17v105.562
	C247.83,235.891,251.488,239.548,256,239.548z"/>
<path d="M256,32.681C132.861,32.681,32.681,132.861,32.681,256c0,53.286,19.159,104.92,53.948,145.392
	c2.941,3.423,8.102,3.812,11.522,0.869c3.422-2.941,3.812-8.1,0.869-11.522c-32.243-37.508-50-85.359-50-134.739
	c0-114.128,92.851-206.979,206.979-206.979c114.129,0,206.979,92.851,206.979,206.979S370.129,462.979,256,462.979
	c-49.38,0-97.231-17.757-134.74-50c-3.423-2.94-8.58-2.55-11.522,0.869c-2.941,3.422-2.552,8.58,0.869,11.522
	c40.473,34.79,92.107,53.948,145.393,53.948c123.138,0,223.319-100.18,223.319-223.319S379.138,32.681,256,32.681z"/>
<g>
</g>
<g>
</g>
<g>
</g>
<g>
</g>
<g>
</g>
<g>
</g>
<g>
</g>
<g>
</g>
<g>
</g>
<g>
</g>
<g>
</g>
<g>
</g>
<g>
</g>
<g>
</g>
<g>
</g>
</svg>
