<?xml version="1.0" encoding="iso-8859-1"?>
<!-- Generator: Adobe Illustrator 19.0.0, SVG Export Plug-In . SVG Version: 6.00 Build 0)  -->
<svg version="1.1" id="Layer_1" xmlns="http://www.w3.org/2000/svg" xmlns:xlink="http://www.w3.org/1999/xlink" x="0px" y="0px"
	 viewBox="0 0 512 512" style="enable-background:new 0 0 512 512;" xml:space="preserve">
<circle style="fill:#FFCF35;" cx="256" cy="256" r="256"/>
<path style="fill:#FFB344;" d="M512,256c0-5.463-0.191-10.881-0.529-16.26l-81.715-81.713l-5.46,6.608l-96.251-96.251
	l-174.128,53.726l-0.183,129.15l-87.287,72.488l188.237,188.235c0.44,0.002,0.876,0.017,1.315,0.017
	C397.384,512,512,397.384,512,256z"/>
<g>
	<path style="fill:#983262;" d="M429.758,158.025l-186.92,43.432v146.466c-11.852-3.631-26.452-3.281-40.882,1.922
		c-28.363,10.226-45.306,35.3-37.841,56.001c7.465,20.701,36.509,29.193,64.872,18.965c23.592-8.507,39.267-27.283,39.583-45.273
		h0.028V221.917l135.402-31.463v158.111c-11.85-3.627-26.448-3.279-40.876,1.926c-28.363,10.226-45.306,35.299-37.841,56.001
		c7.465,20.701,36.509,29.191,64.872,18.965c23.873-8.607,39.652-27.732,39.598-45.916h0.003L429.758,158.025z"/>
	<path style="fill:#983262;" d="M242.838,201.459v146.466c-11.852-3.631-26.452-3.281-40.882,1.922
		c-28.363,10.228-45.306,35.3-37.841,56.001s36.509,29.193,64.872,18.965c23.592-8.507,39.267-27.283,39.583-45.271h0.028V221.918
		l60.383-14.031v-26.445L242.838,201.459z"/>
</g>
<path style="fill:#662E57;" d="M328.98,181.443v26.445l75.019-17.432v158.111c-11.85-3.627-26.448-3.277-40.876,1.926
	c-28.363,10.228-45.306,35.3-37.841,56.001c7.465,20.701,36.509,29.191,64.872,18.963c23.873-8.607,39.652-27.732,39.6-45.916h0.003
	V158.025L328.98,181.443z"/>
<path style="fill:#175D76;" d="M328.047,68.382l-186.92,43.434v146.466c-11.852-3.631-26.452-3.281-40.882,1.922
	c-28.363,10.226-45.306,35.3-37.841,56.001s36.509,29.193,64.872,18.965c23.592-8.507,39.267-27.283,39.583-45.273h0.028V132.275
	l135.402-31.463v158.111c-11.85-3.627-26.448-3.279-40.876,1.926c-28.363,10.226-45.306,35.299-37.841,56.001
	c7.465,20.701,36.509,29.191,64.872,18.965c23.873-8.607,39.652-27.732,39.598-45.916h0.003L328.047,68.382z"/>
<path style="fill:#00263F;" d="M228.993,91.4v26.445l73.295-17.032v158.111c-11.85-3.627-26.448-3.277-40.876,1.926
	c-28.363,10.228-45.306,35.3-37.841,56.001c7.465,20.701,36.509,29.191,64.872,18.963c23.873-8.607,39.652-27.732,39.6-45.916h0.003
	V68.382L228.993,91.4z"/>
<g>
</g>
<g>
</g>
<g>
</g>
<g>
</g>
<g>
</g>
<g>
</g>
<g>
</g>
<g>
</g>
<g>
</g>
<g>
</g>
<g>
</g>
<g>
</g>
<g>
</g>
<g>
</g>
<g>
</g>
</svg>
