<?xml version="1.0" encoding="iso-8859-1"?>
<!-- Generator: Adobe Illustrator 19.0.0, SVG Export Plug-In . SVG Version: 6.00 Build 0)  -->
<svg version="1.1" id="Layer_1" xmlns="http://www.w3.org/2000/svg" xmlns:xlink="http://www.w3.org/1999/xlink" x="0px" y="0px"
	 viewBox="0 0 512 512" style="enable-background:new 0 0 512 512;" xml:space="preserve">
<circle style="fill:#36CD90;" cx="256" cy="256" r="256"/>
<path style="fill:#00A753;" d="M512,256c0-19.234-2.137-37.966-6.158-55.988L387.148,81.318l-6.962,9.855
	c-0.371-0.311-0.751-0.609-1.136-0.897c-8.097-10.788-23.146-14.105-35.148-7.221c-0.339,0.194-35.289,19.395-87.9,19.395
	c-0.001,0-0.002,0-0.004,0c-52.611,0-87.562-19.202-87.9-19.395c-12.049-6.911-27.172-3.542-35.246,7.347l-8-9.084L114.5,102.995
	l14.031,10.943c1.367,4.848,4.075,9.314,7.964,12.8l78.448,78.397v30.605c0,7.736,3.195,14.76,8.328,19.824l19.722,19.562v43.106
	h-1.402c-8.633,0-15.697,7.064-15.697,15.697v108.917c0,4.703,2.103,8.93,5.41,11.81l55.838,55.455
	C413.837,494.744,512,386.842,512,256z"/>
<path style="fill:#FFFFFF;" d="M280.624,125.618v95.868c0,7.88-6.447,14.327-14.327,14.327h-20.594
	c-7.88,0-14.327-6.447-14.327-14.327v-95.868h-16.433V235.74c0,15.337,12.548,27.885,27.885,27.885h0.165v76.08h26.015v-76.08h0.165
	c15.337,0,27.885-12.548,27.885-27.885V125.618H280.624z"/>
<path style="fill:#FFED97;" d="M297.06,125.62v110.12c0,15.34-12.55,27.88-27.89,27.88h-0.16v76.08H256V235.81h10.3
	c7.88,0,14.32-6.44,14.32-14.32v-95.87L297.06,125.62L297.06,125.62z"/>
<path style="fill:#004EB1;" d="M270.409,458.543H241.59c-8.633,0-15.697-7.063-15.697-15.697V333.929
	c0-8.633,7.064-15.697,15.697-15.697h28.819c8.633,0,15.697,7.063,15.697,15.697v108.917
	C286.106,451.48,279.043,458.543,270.409,458.543z"/>
<path style="fill:#002D6B;" d="M286.11,333.93v108.92c0,8.63-7.07,15.69-15.7,15.69H256V318.23h14.41
	C279.04,318.23,286.11,325.3,286.11,333.93z"/>
<path style="fill:#FF4F19;" d="M397.5,102.995l-10.352-21.676l-7.21,10.205c-7.843-11.775-23.582-15.612-36.036-8.469
	c-0.339,0.194-35.289,19.395-87.9,19.395c-0.001,0-0.002,0-0.004,0c-52.611,0-87.562-19.202-87.9-19.395
	c-12.454-7.143-28.193-3.305-36.036,8.469l-7.21-10.205L114.5,102.995l13.151,0.643c-1.126,10.382,3.827,20.932,13.467,26.46
	c1.892,1.086,47.13,26.584,114.88,26.584c0.001,0,0.002,0,0.004,0c67.751,0,112.989-25.498,114.88-26.584
	c9.64-5.528,14.593-16.077,13.467-26.46L397.5,102.995z"/>
<path style="fill:#EE2600;" d="M384.35,103.64c1.13,10.38-3.83,20.93-13.47,26.46c-0.94,0.54-12.73,7.18-32.74,13.7
	c-11.25,3.65-25.09,7.27-41.08,9.73c-5.25,0.81-10.74,1.5-16.44,2.02c-7.81,0.72-16.04,1.13-24.62,1.13v-54.23
	c52.61,0,87.56-19.2,87.9-19.4c12.46-7.14,28.19-3.3,36.04,8.47l7.21-10.2l10.35,21.67L384.35,103.64z"/>
<g>
</g>
<g>
</g>
<g>
</g>
<g>
</g>
<g>
</g>
<g>
</g>
<g>
</g>
<g>
</g>
<g>
</g>
<g>
</g>
<g>
</g>
<g>
</g>
<g>
</g>
<g>
</g>
<g>
</g>
</svg>
